# xmcd
# 
# Track frame offsets:
#     187
#     27927
#     46147
#     66607
#     90722
#     112465
#     131645
#     144485
#     166040
#     187570
# 
# Disc length: 2786
# 
# Revision: 2
# Processed by: cddbd v1.5.2PL0 Copyright (c) Steve Scherf et al.
# Submitted via: fre:ac v1.0.17
# 
DISCID=880ae00a
DTITLE=GUNIW TOOLS - OTHER GOOSE
DYEAR=1997
DGENRE=JPop
TTITLE0=Plenty of Flour
TTITLE1=香風積（カフウセキ）
TTITLE2=Stupid Person
TTITLE3=ヨモギの心
TTITLE4=ユキドケミズ
TTITLE5=FANCY PINK
TTITLE6=Billy what wild cool night
TTITLE7=DISTORTION
TTITLE8=Living Hairspring
TTITLE9=冬のうぐいす
EXTD=
EXTT0=
EXTT1=
EXTT2=
EXTT3=
EXTT4=
EXTT5=
EXTT6=
EXTT7=
EXTT8=
EXTT9=
PLAYORDER=
